<?xml version="1.0" standalone="no"?>
<!DOCTYPE svg PUBLIC "-//W3C//DTD SVG 20010904//EN"
 "http://www.w3.org/TR/2001/REC-SVG-20010904/DTD/svg10.dtd">
<svg version="1.0" xmlns="http://www.w3.org/2000/svg"
 width="512.000000pt" height="512.000000pt" viewBox="0 0 512.000000 512.000000"
 preserveAspectRatio="xMidYMid meet">

<g transform="translate(0.000000,512.000000) scale(0.100000,-0.100000)"
fill="#000000" stroke="none">
<path d="M2453 4465 c-81 -22 -132 -52 -193 -114 -164 -164 -168 -418 -9 -586
95 -100 196 -141 333 -133 114 7 182 36 262 110 177 166 187 423 24 601 -104
114 -268 162 -417 122z"/>
<path d="M2487 2980 c-222 -39 -383 -262 -348 -481 38 -233 257 -396 482 -360
282 46 442 341 324 598 -79 174 -271 276 -458 243z"/>
<path d="M2430 1472 c-73 -24 -125 -59 -183 -121 -155 -166 -149 -420 14 -584
246 -246 659 -111 719 234 24 136 -26 275 -134 377 -84 78 -148 104 -271 109
-68 2 -104 -1 -145 -15z"/>
</g>
</svg>
